<svg xmlns="http://www.w3.org/2000/svg" width="400" height="400" viewBox="0 0 400 400">
  <g stroke="#c084fc" stroke-width="1.5" fill="none" stroke-linecap="round" stroke-linejoin="round" opacity="0.4">
    <g transform="translate(20,20)">
      <path d="M12 6c-1-2-3-2-4-1s-1 3 0 4c-3 0-5 2-5 6s3 7 5 7c1 0 2-1 3-1s2 1 3 1c2 0 5-3 5-7s-2-6-5-6c1-1 1-3 0-4s-3 0-4 1z"/>
    </g>
    <g transform="translate(110,28)">
      <path d="M17 3l4 4-11 11-4-4z"/>
      <path d="M14 6l3 3M11 9l3 3M8 12l3 3"/>
      <path d="M17 3s2-2 4-1c1 2-1 4-1 4"/>
    </g>
    <g transform="translate(198,15)">
      <circle cx="9" cy="14" r="2.5"/>
      <circle cx="14" cy="14" r="2.5"/>
      <circle cx="11.5" cy="18" r="2.5"/>
      <circle cx="9" cy="9" r="2.5"/>
      <circle cx="14" cy="9" r="2.5"/>
      <path d="M11.5 6v3"/>
    </g>
    <g transform="translate(288,22)">
      <path d="M6 8h11v6a5.5 5.5 0 01-11 0z"/>
      <path d="M17 9h1.5a2 2 0 010 4H17"/>
      <path d="M9 5s0-1 1-1 1 1 1 1M13 5s0-1 1-1 1 1 1 1"/>
    </g>
    <g transform="translate(58,90)">
      <circle cx="8" cy="17" r="3"/>
      <circle cx="16" cy="17" r="3"/>
      <path d="M8 14C9 8 13 6 16 5M16 14c-1-3 0-6 0-9"/>
    </g>
    <g transform="translate(148,100)">
      <path d="M5 12a7 7 0 0114 0v6H5z"/>
      <path d="M9 14v2M13 14v2M17 14v2"/>
    </g>
    <g transform="translate(238,88)">
      <path d="M6 18C6 10 12 5 19 5c0 7-5 13-13 13z"/>
      <path d="M6 18c2-4 6-8 11-11"/>
    </g>
    <g transform="translate(328,98)">
      <path d="M12 21c4 0 6-3 6-7 0-6-3-11-6-11S6 8 6 14c0 4 2 7 6 7z"/>
    </g>
    <g transform="translate(18,168)">
      <path d="M9 4s0 2 2 2 2-2 2-2"/>
      <path d="M11 6c4 0 6 3 6 6 0 5-4 9-7 9s-6-2-6-6c0-4 3-9 7-9z"/>
    </g>
    <g transform="translate(108,178)">
      <path d="M12 6c-1-2-3-2-4-1s-1 3 0 4c-3 0-5 2-5 6s3 7 5 7c1 0 2-1 3-1s2 1 3 1c2 0 5-3 5-7s-2-6-5-6c1-1 1-3 0-4s-3 0-4 1z"/>
    </g>
    <g transform="translate(198,163)">
      <path d="M17 3l4 4-11 11-4-4z"/>
      <path d="M14 6l3 3M11 9l3 3M8 12l3 3"/>
      <path d="M17 3s2-2 4-1c1 2-1 4-1 4"/>
    </g>
    <g transform="translate(288,173)">
      <circle cx="9" cy="14" r="2.5"/>
      <circle cx="14" cy="14" r="2.5"/>
      <circle cx="11.5" cy="18" r="2.5"/>
      <circle cx="9" cy="9" r="2.5"/>
      <circle cx="14" cy="9" r="2.5"/>
      <path d="M11.5 6v3"/>
    </g>
    <g transform="translate(58,248)">
      <path d="M6 8h11v6a5.5 5.5 0 01-11 0z"/>
      <path d="M17 9h1.5a2 2 0 010 4H17"/>
      <path d="M9 5s0-1 1-1 1 1 1 1M13 5s0-1 1-1 1 1 1 1"/>
    </g>
    <g transform="translate(148,258)">
      <circle cx="8" cy="17" r="3"/>
      <circle cx="16" cy="17" r="3"/>
      <path d="M8 14C9 8 13 6 16 5M16 14c-1-3 0-6 0-9"/>
    </g>
    <g transform="translate(238,243)">
      <path d="M5 12a7 7 0 0114 0v6H5z"/>
      <path d="M9 14v2M13 14v2M17 14v2"/>
    </g>
    <g transform="translate(328,253)">
      <path d="M6 18C6 10 12 5 19 5c0 7-5 13-13 13z"/>
      <path d="M6 18c2-4 6-8 11-11"/>
    </g>
    <g transform="translate(18,328)">
      <path d="M12 21c4 0 6-3 6-7 0-6-3-11-6-11S6 8 6 14c0 4 2 7 6 7z"/>
    </g>
    <g transform="translate(108,338)">
      <path d="M9 4s0 2 2 2 2-2 2-2"/>
      <path d="M11 6c4 0 6 3 6 6 0 5-4 9-7 9s-6-2-6-6c0-4 3-9 7-9z"/>
    </g>
    <g transform="translate(198,323)">
      <path d="M12 6c-1-2-3-2-4-1s-1 3 0 4c-3 0-5 2-5 6s3 7 5 7c1 0 2-1 3-1s2 1 3 1c2 0 5-3 5-7s-2-6-5-6c1-1 1-3 0-4s-3 0-4 1z"/>
    </g>
    <g transform="translate(288,333)">
      <path d="M17 3l4 4-11 11-4-4z"/>
      <path d="M14 6l3 3M11 9l3 3M8 12l3 3"/>
      <path d="M17 3s2-2 4-1c1 2-1 4-1 4"/>
    </g>
  </g>
</svg>
